<svg id="svg2" xmlns="http://www.w3.org/2000/svg" viewBox="0 0 468.46 467.88"><defs><style>.cls-1{fill:#02a8f2;}.cls-2{fill:#fff;}.cls-3{fill:#f94508;}</style></defs><title>Reddit_icon</title><path class="cls-1" d="M468.46,234.8c-.38,128-106.23,233.43-234.07,233.08C105.13,467.53-.52,362,0,233.7.53,104.21,106.14-.47,235.77,0,364.93.48,468.84,105.34,468.46,234.8ZM226.54,165.2c-1.72.36-2.69.59-3.67.76-11.22,2-22.56,3.45-33.65,6-14.62,3.36-27.91,10.17-40.91,17.51a6.84,6.84,0,0,1-4.87.24c-4.73-1.49-9.23-4.3-14-4.89-17.25-2.13-31.74,3-43,17-15.54,19.2-11.55,47.5,6.58,62.37A7.64,7.64,0,0,1,95.51,269c.39,6.08-.41,12.3.53,18.26a101.31,101.31,0,0,0,14,38.53c15,23.89,36.63,39.57,62.29,50,18.25,7.42,37.35,11.6,57.14,11.18,12.55-.26,25.31-.27,37.59-2.51,27.76-5.07,52.83-16.56,73.7-36,13.09-12.19,23-26.62,28.53-43.8a84.58,84.58,0,0,0,4.21-33.29c-.2-2.42,1.56-5.7,3.46-7.48,13.57-12.67,18.91-28,14.28-46-6.82-26.5-36.72-42.24-64.17-28.84a9,9,0,0,1-6.68-.12c-11.4-4.89-22.31-11.23-34.05-14.93-12.19-3.85-25.13-5.43-37.8-7.63-4.08-.71-6-1.81-5.89-6.47.31-14.82.1-29.66.09-44.48,0-2.44,0-4.89,0-7.89,22.69,3.86,44.63,7.54,66.52,11.5,1.27.23,2.51,2.66,3.1,4.3,1.27,3.53,1.5,7.54,3.23,10.79,10.17,19.15,31.92,25.64,50.6,14.92,19.16-11,23.32-35.81,10.58-52.72-15.63-20.75-48.14-18.4-60.37,4-.73,1.34-3.35,2.49-5,2.36-5.26-.41-10.48-1.39-15.7-2.27C277,97.38,258.29,94.35,239.63,91c-8.82-1.59-13,1.45-13,10.48-.06,12.33,0,24.66,0,37C226.54,147.27,226.54,156.07,226.54,165.2Z"/><path d="M226.54,165.2c0-9.13,0-17.93,0-26.74,0-12.33,0-24.66,0-37,0-9,4.22-12.07,13-10.48,18.66,3.36,37.38,6.39,56.08,9.52,5.22.87,10.44,1.86,15.7,2.27,1.64.13,4.26-1,5-2.36,12.24-22.44,44.74-24.78,60.37-4,12.74,16.91,8.58,41.71-10.58,52.72-18.68,10.73-40.43,4.23-50.6-14.92-1.72-3.25-2-7.26-3.23-10.79-.59-1.64-1.82-4.07-3.1-4.3-21.89-4-43.83-7.63-66.52-11.5,0,3,0,5.44,0,7.89,0,14.83.22,29.66-.09,44.48-.1,4.66,1.81,5.77,5.89,6.47,12.67,2.2,25.61,3.78,37.8,7.63,11.75,3.7,22.65,10,34.05,14.93a9,9,0,0,0,6.68.12c27.45-13.4,57.35,2.34,64.17,28.84,4.63,18-.71,33.29-14.28,46-1.9,1.77-3.65,5.05-3.46,7.48a84.58,84.58,0,0,1-4.21,33.29c-5.57,17.19-15.44,31.62-28.53,43.8-20.87,19.43-45.93,30.93-73.7,36-12.28,2.24-25,2.24-37.59,2.51-19.79.42-38.89-3.75-57.14-11.18-25.66-10.44-47.27-26.11-62.29-50a101.31,101.31,0,0,1-14-38.53c-.95-6-.15-12.18-.53-18.26a7.64,7.64,0,0,0-2.57-4.84C74.82,249.32,70.83,221,86.37,201.81c11.31-14,25.79-19.11,43-17,4.8.59,9.3,3.4,14,4.89a6.84,6.84,0,0,0,4.87-.24c13-7.34,26.29-14.16,40.91-17.51,11.09-2.54,22.42-4,33.65-6C223.85,165.79,224.82,165.56,226.54,165.2Zm13.3,208.44c6.33-.85,18-1.63,29.36-4.11,29.11-6.37,54.56-19.62,73-43.73,18.76-24.56,23.11-51.61,10.63-80.38-10.23-23.59-28.65-39.41-51.28-50.36-34-16.45-69.64-19.28-106.13-10.12-24.57,6.17-46.26,17.73-63.37,36.84-15.57,17.39-23.83,37.54-21.82,61.2,2.28,26.94,16.52,47,37.36,62.83C173.19,365.23,202.8,372.91,239.85,373.64ZM348,140a21.73,21.73,0,0,0,21.76-22,22,22,0,0,0-22-21.94c-11.65.09-21.78,10.08-21.94,21.62A22.12,22.12,0,0,0,348,140Zm21.67,110.69C380,240.92,381.47,224,373.25,212s-24.33-16.83-36.87-10.79C351.8,214.8,363.52,230.8,369.67,250.65Zm-269.9.08c6.19-19.92,17.94-35.93,33.35-49.51-11.7-6-27.76-1.54-36.19,9.85A30.45,30.45,0,0,0,99.77,250.73Z"/><path class="cls-2" d="M239.85,373.64c-37-.74-66.65-8.41-92.29-27.84C126.73,330,112.48,309.92,110.2,283c-2-23.66,6.26-43.81,21.82-61.2,17.11-19.11,38.8-30.67,63.37-36.84,36.49-9.16,72.1-6.33,106.13,10.12,22.64,10.95,41.05,26.77,51.28,50.36,12.47,28.76,8.12,55.82-10.63,80.38-18.41,24.11-43.86,37.36-73,43.73C257.88,372,246.18,372.79,239.85,373.64ZM173.79,244.92c-15.43-.05-28.06,12.1-28.12,27.07-.07,16,12.11,28.4,27.87,28.37a28.22,28.22,0,0,0,27.77-28.19A27.67,27.67,0,0,0,173.79,244.92Zm149.81,27.6a27.72,27.72,0,0,0-55.45,0c.25,15.73,12.51,27.93,28,27.84C311.11,300.32,323.67,287.58,323.6,272.52Zm-88,78.11c20.52-.72,39.43-4.67,57.19-13.43,4.58-2.26,6.3-6.57,4.34-10.19-1.83-3.36-6.14-4.15-10.55-2a114.13,114.13,0,0,1-37.67,10.9c-23,2.51-45.1-.8-66.06-10.95-5.12-2.48-8.39-1.64-10.27,2.18-2.17,4.4-.68,7.71,4.5,10.3C195.73,346.77,215.65,350.5,235.57,350.63Z"/><path class="cls-2" d="M348,140a22.12,22.12,0,0,1-22.13-22.29C326,106.13,336.16,96.14,347.81,96a22,22,0,0,1,22,21.94A21.73,21.73,0,0,1,348,140Z"/><path class="cls-2" d="M369.67,250.65c-6.14-19.85-17.86-35.86-33.29-49.45,12.54-6,28.66-1.19,36.87,10.79S380,240.92,369.67,250.65Z"/><path class="cls-2" d="M99.77,250.73a30.45,30.45,0,0,1-2.84-39.66c8.42-11.39,24.49-15.87,36.19-9.85C117.71,214.8,106,230.82,99.77,250.73Z"/><path class="cls-3" d="M173.79,244.92a27.67,27.67,0,0,1,27.52,27.25,28.22,28.22,0,0,1-27.77,28.19c-15.75,0-27.93-12.38-27.87-28.37C145.73,257,158.36,244.86,173.79,244.92Z"/><path class="cls-3" d="M323.6,272.52c.07,15.06-12.49,27.81-27.47,27.88-15.47.08-27.73-12.12-28-27.84a27.72,27.72,0,0,1,55.45,0Z"/><path d="M235.57,350.63c-19.92-.13-39.84-3.86-58.54-13.2-5.17-2.59-6.67-5.9-4.5-10.3,1.88-3.82,5.15-4.66,10.27-2.18,21,10.14,43,13.46,66.06,10.95A114.13,114.13,0,0,0,286.54,325c4.41-2.14,8.73-1.35,10.55,2,2,3.61.24,7.92-4.34,10.19C275,346,256.09,349.91,235.57,350.63Z"/></svg>